<?xml version="1.0" encoding="UTF-8"?>
<!-- Created with Inkscape (http://www.inkscape.org/) -->
<svg width="525.17" height="525.17" version="1.1" viewBox="0 0 525.17 525.17" xmlns="http://www.w3.org/2000/svg">
 <g transform="translate(-178 -138.32)">
  <path transform="rotate(-37)" d="m298.1 397.83-375-7.4e-4 -2.68e-4 73.401a82.5 82.5 0 0 1 6.3376-14.158l9.6413 7.2653a70.5 70.5 0 0 0 19.265 90.272 70.5 70.5 0 0 0 92.085-6.3632l9.6413 7.2653a82.5 82.5 0 0 1-108.95 8.6815 82.5 82.5 0 0 1-28.022-38.918l-0.001969 247.55 375 3.5e-4 -1.4e-4 -105.05c-1.6428 4.3617-3.893 8.5739-6.8405 12.485-7.8915 10.395-19.535 17.292-32.443 19.219l-62.317 9.546-12.27-9.2459 73.412-11.185c9.8909-1.6092 18.783-6.9641 24.832-14.954 10.663-14.15 10.22-33.201 0.15573-46.733l6.8339-9.0689c3.7659 4.4342 6.649 9.423 8.6354 14.705l-2.2e-4 -234.72zm-48.346 173.36 5.087 9.1842-176.22 97.6-5.087-9.1842 176.22-97.6zm-199.33-138.77a82.5 82.5 0 0 1 21.75 107.17l-9.6679-7.2852a70.5 70.5 0 0 0-19.304-90.301 70.5 70.5 0 0 0-92.085 6.3632l-9.6413-7.2653a82.5 82.5 0 0 1 108.95-8.6815zm99.621 78.826c12.945 9.7546 17.737 26.269 13.254 40.919l-11.143-1.3683c4.2009-10.783 0.9664-23.459-8.731-30.766-11.688-8.8079-28.337-6.4975-37.112 5.2157-5.4064 7.2169-6.6954 16.719-3.5091 25.155l2.2442 5.8168-10.177 4.3214-2.2225-5.7418c-4.7465-12.088-2.9223-25.789 4.8798-36.171 12.442-16.557 35.977-19.845 52.517-7.3808zm123.69 94.24-6.7598 8.9706c-16.181-7.1036-35.697-2.4781-46.794 12.248-0.20224 0.26955-0.36834 0.55498-0.56282 0.82802l-8.7881-6.6223c0.19562-0.27205 0.36419-0.55657 0.56594-0.82567 14.768-19.598 41.166-25.244 62.339-14.599zm-161.49-30.598 5.3894 13.966c5.4935 14.054 3.3127 29.953-5.7669 42.005-14.456 19.188-41.733 23.02-60.92 8.5617-18.785-14.155-22.841-40.592-9.4348-59.699l8.8162 6.6435c-9.7494 14.25-6.6917 33.774 7.2386 44.271 14.335 10.802 34.716 7.9406 45.515-6.3967 6.665-8.849 8.356-20.487 4.4951-30.87l-5.4866-14.171 10.154-4.3098zm44.338 129.11 72.096 54.328-7.2218 9.5836-81.461-61.385 16.587-2.5264z"/>
 </g>
</svg>
