<?xml version="1.0" encoding="UTF-8"?>
<!-- Generated by Pixelmator Pro 3.6.16 -->
<svg width="128" height="128" viewBox="0 0 128 128" xmlns="http://www.w3.org/2000/svg">
    <path id="Feather" fill="#000000" stroke="none" d="M 115.949997 2.780998 C 110.445999 -2.125 103.790001 -0.151993 97.211998 5.682999 C 96.199265 6.593178 95.225716 7.546043 94.293999 8.539001 C 83.047997 20.469002 72.610001 42.558998 69.367996 59.433998 C 70.629997 61.997002 71.617996 65.265999 72.269997 67.762001 C 72.595444 69.002533 72.887222 70.251663 73.144997 71.508003 C 73.144997 71.508003 73.043999 71.128998 72.629997 69.93 L 72.363998 69.153 C 72.309441 69.009338 72.250748 68.867279 72.188004 68.726997 C 71.454002 67.019997 69.427002 63.417999 68.531998 61.852005 C 67.822723 63.929001 67.153267 66.019379 66.524002 68.122002 C 69.106003 72.835999 70.672997 80.921997 70.672997 80.921997 C 70.672997 80.921997 70.540001 80.394997 69.890999 78.567001 C 69.320999 76.949997 66.454002 71.93 65.774002 70.758003 C 64.613998 75.047997 64.153999 77.938004 64.567001 78.640999 C 65.379997 80.003998 66.144997 82.363998 66.817001 84.964996 C 68.345001 90.833 69.403 97.981003 69.403 97.981003 L 69.497002 99.172997 C 69.293999 104.058998 69.394997 108.954002 69.793999 113.829002 C 70.302002 119.942001 71.250999 125.188004 72.461998 128.001007 L 73.286003 127.551003 C 71.504997 122.015999 70.781998 114.759003 71.101997 106.396004 C 71.579002 93.606003 74.524002 78.181 79.958 62.106003 C 89.149002 37.845001 101.896004 18.373001 113.559998 9.071999 C 102.93 18.673004 88.537003 49.766998 84.227997 61.275002 C 79.403999 74.162003 75.989998 86.251999 73.93 97.839996 C 77.485001 86.976997 88.973 82.313004 88.973 82.313004 C 88.973 82.313004 94.610001 75.359001 101.195999 65.43 C 97.250999 66.328003 90.769997 67.871002 88.598 68.780998 C 85.398003 70.121002 84.535004 70.578003 84.535004 70.578003 C 84.535004 70.578003 94.905998 64.265999 103.805 61.405998 C 116.039001 42.136002 129.371002 14.761002 115.949997 2.780998 M 62.011002 61"/>
</svg>
